<svg width="321" height="110" viewBox="0 0 321 110" fill="none" xmlns="http://www.w3.org/2000/svg">
<path d="M301.179 44.6667C307.115 45.1866 311.374 46.2264 313.954 47.7862C316.793 49.086 318.729 50.7757 319.761 52.8553C320.794 54.6751 321.181 56.7547 320.923 59.0943C320.664 61.174 320.535 63.3836 320.535 65.7233C313.825 68.5828 305.309 70.7925 294.986 72.3522C284.92 73.9119 273.694 75.0818 261.306 75.8616C249.176 76.6415 236.53 77.1614 223.368 77.4214C210.206 77.4214 197.431 77.4214 185.043 77.4214C172.914 77.4214 161.429 77.4214 150.59 77.4214C140.008 77.4214 131.234 77.6813 124.266 78.2013C103.103 79.501 86.5859 80.8008 74.7142 82.1006C62.8425 83.4004 54.5839 84.7002 49.9385 86C42.1961 85.4801 36.1312 84.4402 31.7439 82.8805C27.3565 81.3208 23.7434 79.3711 20.9045 77.0314C18.0656 74.6918 15.6138 72.0922 13.5492 69.2327C11.4846 66.3732 9.0328 63.3836 6.19392 60.2641C7.7424 58.1845 8.00048 55.195 6.96816 51.2956C5.93584 47.3962 3.61312 44.4067 0 42.327C2.83888 42.0671 5.03256 40.6373 6.58104 38.0377C8.12952 35.1782 8.25856 33.0985 6.96816 31.7987C13.4202 30.7589 20.2593 30.239 27.4855 30.239C34.9699 29.979 42.3251 29.7191 49.5514 29.4591C56.7776 29.1992 63.6167 28.8092 70.0687 28.2893C76.5207 27.7694 82.1985 26.7296 87.102 25.1698C107.232 25.1698 128.137 25.0398 149.815 24.7799C171.494 24.5199 191.754 24.26 210.593 24C217.303 25.2998 225.175 26.0797 234.208 26.3396C243.499 26.5996 252.531 27.1195 261.306 27.8994C270.339 28.6792 278.468 30.239 285.695 32.5786C292.921 34.9182 298.082 38.9476 301.179 44.6667Z" fill="black"/>
<g filter="url(#filter0_dddd_9_37)">
<path d="M21.2051 25.2136C21.3418 24.53 21.4329 23.9831 21.4785 23.5729C21.5241 23.1172 21.3646 22.6387 21 22.1374C21.1823 21.4082 21.319 20.8386 21.4102 20.4284C21.5469 20.0183 21.5697 19.4486 21.4785 18.7194C21.8887 17.5345 22.5039 16.5319 23.3242 15.7116C24.1901 14.8913 25.1243 14.2077 26.127 13.6608C27.1296 13.0684 28.1777 12.5899 29.2715 12.2253C30.3652 11.8151 31.3906 11.4733 32.3477 11.1999C32.3477 11.0176 32.2565 10.9265 32.0742 10.9265C31.8919 10.9265 31.8464 10.8125 31.9375 10.5847C34.3984 10.1289 36.8594 9.46813 39.3203 8.60224C41.8268 7.73636 44.3789 6.96162 46.9766 6.27802C49.5742 5.59443 52.2402 5.18427 54.9746 5.04755C57.709 4.86526 60.5801 5.20706 63.5879 6.07294C63.7702 6.61982 64.0208 7.14391 64.3398 7.64521C64.6589 8.14651 64.9779 8.64781 65.2969 9.14912C65.6615 9.60485 65.9805 10.0606 66.2539 10.5163C66.5273 10.972 66.6868 11.4505 66.7324 11.9519C67.2793 12.4532 67.7122 13 68.0312 13.5925C68.3958 14.1394 68.4642 14.8913 68.2363 15.8483C67.735 16.2129 67.2109 16.5775 66.6641 16.9421C66.1172 17.3067 65.5475 17.6485 64.9551 17.9675C62.9043 17.4662 60.8535 17.2839 58.8027 17.4206C56.752 17.5573 54.9062 17.7168 53.2656 17.8991C52.7643 17.3522 52.1719 17.1016 51.4883 17.1472C50.8047 17.1472 50.0755 17.2611 49.3008 17.489C48.5716 17.6713 47.8424 17.8763 47.1133 18.1042C46.3841 18.2865 45.7005 18.3321 45.0625 18.2409C44.5612 18.6966 43.9004 19.0157 43.0801 19.1979C42.2598 19.3347 41.3939 19.4486 40.4824 19.5397C40.4368 19.7676 40.4824 19.9271 40.6191 20.0183C40.7559 20.1094 40.7786 20.2917 40.6875 20.5651C41.0065 20.9753 41.4395 21.2715 41.9863 21.4538C42.5332 21.5905 43.0801 21.7272 43.627 21.864C44.2194 22.0007 44.7435 22.2058 45.1992 22.4792C45.6549 22.7071 45.9512 23.0944 46.0879 23.6413C46.9082 23.6869 47.6146 23.9147 48.207 24.3249C48.7995 24.6895 49.3008 25.1452 49.7109 25.6921C50.1211 26.239 50.4173 26.8314 50.5996 27.4694C50.7819 28.0619 50.8503 28.6088 50.8047 29.1101C50.987 29.5658 51.1693 29.7481 51.3516 29.6569C51.5794 29.5658 51.8301 29.6797 52.1035 29.9987C52.2858 30.6823 52.696 31.4115 53.334 32.1862C54.0176 32.9154 54.5417 33.7129 54.9062 34.5788C54.9974 35.946 55.0658 37.1765 55.1113 38.2702C55.2025 39.364 55.0202 40.4349 54.5645 41.4831C53.7897 43.4883 52.6732 45.2884 51.2148 46.8835C49.7565 48.4785 48.0931 49.8913 46.2246 51.1218C44.4017 52.3067 42.4648 53.3548 40.4141 54.2663C38.3633 55.1322 36.3353 55.8614 34.3301 56.4538C34.1478 56.4082 33.9199 56.4082 33.6465 56.4538C33.4186 56.4994 33.373 56.3627 33.5098 56.0436C33.0996 56.4082 32.6211 56.6361 32.0742 56.7272C31.5729 56.8184 31.0033 56.8412 30.3652 56.7956C29.7728 56.7956 29.1576 56.7728 28.5195 56.7272C27.9271 56.6817 27.3346 56.7045 26.7422 56.7956C26.3776 56.431 26.0358 56.0664 25.7168 55.7019C25.4434 55.3373 25.2155 54.9043 25.0332 54.403C24.8053 54.3574 24.6914 54.2207 24.6914 53.9929C24.737 53.7194 24.6458 53.5827 24.418 53.5827C24.418 53.4004 24.4408 53.2637 24.4863 53.1726C24.5319 53.0814 24.5775 52.9903 24.623 52.8991C24.8053 52.7624 24.8737 52.6713 24.8281 52.6257C24.8281 52.5345 24.7598 52.4662 24.623 52.4206C24.5319 52.3295 24.418 52.2383 24.2812 52.1472C24.1901 52.056 24.1673 51.9421 24.2129 51.8054C24.4408 51.3952 24.5091 50.9167 24.418 50.3698C24.3724 49.7774 24.3268 49.1849 24.2812 48.5925C24.2357 48 24.2812 47.4532 24.418 46.9519C24.5547 46.405 24.9421 45.9492 25.5801 45.5847C27.4486 45.767 29.2031 45.6758 30.8438 45.3112C32.5299 44.9466 34.1022 44.4453 35.5605 43.8073C37.0645 43.1693 38.4772 42.4857 39.7988 41.7565C41.166 40.9818 42.4876 40.2754 43.7637 39.6374C43.9004 39.1817 44.1055 38.7943 44.3789 38.4753C44.6979 38.1563 45.0169 37.8601 45.3359 37.5866C45.6549 37.2676 45.9512 36.9486 46.2246 36.6296C46.498 36.265 46.7031 35.8321 46.8398 35.3308C46.8854 35.1485 46.8854 35.0117 46.8398 34.9206C46.7943 34.8295 46.7259 34.7611 46.6348 34.7155C46.5436 34.6244 46.4525 34.5332 46.3613 34.4421C46.2702 34.3509 46.2246 34.2142 46.2246 34.0319C46.0879 33.9864 45.9512 33.9408 45.8145 33.8952C45.7233 33.8496 45.6322 33.8269 45.541 33.8269C44.3561 33.2344 43.1029 32.7331 41.7812 32.3229C40.4596 31.9128 39.3431 31.4571 38.4316 30.9558C37.8848 31.3203 37.3379 31.4115 36.791 31.2292C36.2441 31.0469 35.5833 30.8646 34.8086 30.6823C32.8945 30.5912 31.0716 30.4089 29.3398 30.1354C27.6536 29.862 26.013 29.3835 24.418 28.6999C24.3268 28.4265 24.2129 28.1986 24.0762 28.0163C23.9395 27.7884 23.6204 27.7201 23.1191 27.8112C22.8001 27.3555 22.4583 26.9453 22.0938 26.5808C21.7747 26.1706 21.4785 25.7149 21.2051 25.2136Z" fill="url(#paint0_linear_9_37)"/>
<path d="M95.6484 49.4128C95.7396 50.5977 95.6029 51.5775 95.2383 52.3522C94.8737 53.127 94.3724 53.7878 93.7344 54.3347C93.0964 54.8815 92.3672 55.3145 91.5469 55.6335C90.7266 55.9525 89.929 56.2487 89.1543 56.5222C88.7897 56.2943 88.4251 56.0664 88.0605 55.8386C87.7415 55.5651 87.3542 55.3601 86.8984 55.2233C86.306 54.1296 85.7363 53.1726 85.1895 52.3522C84.6426 51.4864 84.3919 50.5065 84.4375 49.4128C84.4375 49.3672 84.4603 49.1166 84.5059 48.6608C84.597 48.2051 84.6882 47.7038 84.7793 47.1569C84.916 46.6101 85.0072 46.1088 85.0527 45.653C85.1439 45.1517 85.1895 44.8783 85.1895 44.8327C84.1413 44.9239 83.0475 45.1517 81.9082 45.5163C80.7689 45.8809 79.6523 46.3138 78.5586 46.8151C77.5104 47.3164 76.5078 47.8177 75.5508 48.319C74.6393 48.8203 73.8874 49.2533 73.2949 49.6179C73.2949 49.7546 73.2038 50.0964 73.0215 50.6433C72.8392 51.1446 72.6113 51.6914 72.3379 52.2839C72.0645 52.8308 71.7682 53.3321 71.4492 53.7878C71.1302 54.2435 70.8112 54.4714 70.4922 54.4714C70.5378 54.6081 70.6061 54.7448 70.6973 54.8815C70.7884 55.0183 70.7884 55.2005 70.6973 55.4284C70.0592 55.6107 69.4896 55.8386 68.9883 56.112C68.487 56.431 67.9629 56.6817 67.416 56.864C66.8691 57.0918 66.2767 57.2058 65.6387 57.2058C65.0007 57.2058 64.2487 56.9779 63.3828 56.5222C63.3828 56.2487 63.2689 56.0209 63.041 55.8386C62.8132 55.6107 62.5625 55.4284 62.2891 55.2917C62.0612 55.1094 61.8561 54.9727 61.6738 54.8815C61.4915 54.7448 61.4004 54.6309 61.4004 54.5397C61.1725 54.5853 61.0814 54.4258 61.127 54.0612C61.1725 53.6966 61.3548 53.6055 61.6738 53.7878C61.1725 53.1498 60.8535 52.6029 60.7168 52.1472C60.6257 51.6459 60.375 51.0306 59.9648 50.3015C60.056 50.2103 60.1471 50.0508 60.2383 49.8229C60.2839 49.5951 60.3294 49.39 60.375 49.2077C60.4206 49.0254 60.4889 48.8887 60.5801 48.7976C60.6712 48.7064 60.7852 48.7292 60.9219 48.8659C60.8307 48.4558 60.8307 48.114 60.9219 47.8405C61.013 47.5671 61.1042 47.3164 61.1953 47.0886C61.2865 46.8607 61.3548 46.6328 61.4004 46.405C61.446 46.1771 61.3776 45.9265 61.1953 45.653C61.9245 44.6504 62.403 43.5795 62.6309 42.4401C62.8587 41.2552 62.9954 40.1843 63.041 39.2272C63.36 38.9082 63.6335 38.4525 63.8613 37.8601C64.1348 37.2676 64.3398 36.6752 64.4766 36.0827C64.6133 35.4447 64.6589 34.8522 64.6133 34.3054C64.6133 33.7129 64.5449 33.2344 64.4082 32.8698C64.4538 32.642 64.7044 32.5736 65.1602 32.6647C65.4336 31.1608 65.6159 29.4746 65.707 27.6061C65.8438 25.6921 66.0488 23.892 66.3223 22.2058C66.5957 20.474 67.0514 18.9701 67.6895 17.694C68.3275 16.3724 69.3529 15.5065 70.7656 15.0964C71.0391 16.0534 71.3809 16.8965 71.791 17.6257C72.2467 18.3548 72.7253 19.0612 73.2266 19.7448C73.7734 20.3828 74.2975 21.0436 74.7988 21.7272C75.3457 22.4108 75.847 23.1856 76.3027 24.0515C76.2572 24.9173 76.166 25.9199 76.0293 27.0593C75.8926 28.1986 75.7103 29.3607 75.4824 30.5456C75.3001 31.7305 75.0951 32.8698 74.8672 33.9636C74.6849 35.0573 74.5026 35.9916 74.3203 36.7663C74.3659 36.9942 74.4798 37.1309 74.6621 37.1765C74.89 37.222 74.9355 37.4271 74.7988 37.7917C75.8926 37.5183 77.0319 37.2676 78.2168 37.0397C79.4017 36.8119 80.5866 36.5612 81.7715 36.2878C82.9564 36.0144 84.0957 35.7181 85.1895 35.3991C86.3288 35.0345 87.377 34.6016 88.334 34.1003C88.5618 32.3229 88.8581 30.5456 89.2227 28.7683C89.5872 26.9909 89.6328 25.168 89.3594 23.2995C89.5872 23.1172 89.7695 22.8894 89.9062 22.6159C90.043 22.3425 90.2708 22.1602 90.5898 22.069C90.362 21.2032 90.2708 20.2917 90.3164 19.3347C90.362 18.3776 90.5215 17.4662 90.7949 16.6003C91.1139 15.7344 91.5469 15.0052 92.0938 14.4128C92.6862 13.7748 93.3926 13.3646 94.2129 13.1823C94.7142 13.9115 95.1471 14.709 95.5117 15.5749C95.8763 16.3952 96.2409 17.2383 96.6055 18.1042C97.0156 18.9245 97.4258 19.722 97.8359 20.4968C98.2917 21.2259 98.8613 21.864 99.5449 22.4108C99.6816 23.7324 99.7728 25.0996 99.8184 26.5124C99.9095 27.9252 99.9779 29.3607 100.023 30.819C99.6589 32.5508 99.2487 34.237 98.793 35.8776C98.3828 37.4727 98.0866 39.1817 97.9043 41.0046C97.5853 41.3692 97.3346 41.7793 97.1523 42.2351C96.9701 42.6908 96.7878 43.1693 96.6055 43.6706C96.4232 44.1263 96.2181 44.5821 95.9902 45.0378C95.7624 45.4479 95.4889 45.8125 95.1699 46.1315C95.3522 46.6784 95.375 47.2025 95.2383 47.7038C95.1471 48.1595 95.2839 48.7292 95.6484 49.4128Z" fill="url(#paint1_linear_9_37)"/>
<path d="M141.244 35.5358C141.199 36.0827 141.244 36.6068 141.381 37.1081C141.518 37.6094 141.677 38.1107 141.859 38.612C142.087 39.0677 142.292 39.5463 142.475 40.0476C142.657 40.5489 142.794 41.0502 142.885 41.5515C142.976 42.1895 142.976 42.8959 142.885 43.6706C142.794 44.3998 142.634 45.1289 142.406 45.8581C142.178 46.5417 141.882 47.1797 141.518 47.7722C141.153 48.319 140.72 48.7292 140.219 49.0026C139.581 49.8229 138.806 50.461 137.895 50.9167C136.983 51.3724 136.14 51.9193 135.365 52.5573C134.864 52.8763 134.294 53.1042 133.656 53.2409C133.064 53.3776 132.449 53.5144 131.811 53.6511C131.309 53.9245 130.717 54.2207 130.033 54.5397C129.35 54.8132 128.643 55.0866 127.914 55.3601C127.185 55.5879 126.456 55.7702 125.727 55.9069C124.997 55.9981 124.359 56.0209 123.812 55.9753C122.445 56.4766 121.101 56.7956 119.779 56.9323C118.503 57.1146 116.999 57.0235 115.268 56.6589C113.627 56.8867 112.1 56.8184 110.688 56.4538C109.32 56.0892 108.09 55.5196 106.996 54.7448C105.948 53.9245 105.014 52.9675 104.193 51.8737C103.419 50.7344 102.781 49.5495 102.279 48.319C101.915 45.7214 102.006 43.3744 102.553 41.278C103.1 39.1361 103.874 37.1765 104.877 35.3991C105.925 33.5762 107.11 31.9128 108.432 30.4089C109.753 28.8594 111.029 27.3555 112.26 25.8972C112.533 25.9883 112.738 25.9883 112.875 25.8972C113.057 25.7604 113.217 25.6009 113.354 25.4186C113.49 25.1908 113.627 24.9857 113.764 24.8034C113.946 24.6211 114.151 24.5072 114.379 24.4616C114.698 23.778 115.154 23.2767 115.746 22.9577C116.384 22.5931 116.885 22.0918 117.25 21.4538C117.66 21.3627 118.002 21.2259 118.275 21.0436C118.549 20.8614 118.799 20.6563 119.027 20.4284C119.301 20.2005 119.574 19.9955 119.848 19.8132C120.121 19.5853 120.44 19.4258 120.805 19.3347V18.5827C121.625 18.2181 122.217 17.808 122.582 17.3522C122.992 16.8509 123.471 16.2585 124.018 15.5749C124.428 15.5293 124.747 15.5065 124.975 15.5065C125.248 15.5065 125.635 15.461 126.137 15.3698C126.501 14.7318 126.82 14.2533 127.094 13.9343C127.413 13.6153 127.868 13.2735 128.461 12.9089C129.008 13.1823 129.6 13.3646 130.238 13.4558C130.922 13.5469 131.514 13.8431 132.016 14.3444C132.061 14.8002 132.198 15.1647 132.426 15.4382C132.654 15.666 132.904 15.8939 133.178 16.1218C133.451 16.3041 133.702 16.5091 133.93 16.737C134.203 16.9649 134.385 17.2839 134.477 17.694C134.659 17.7396 134.773 17.7168 134.818 17.6257C134.91 17.5345 135.046 17.5117 135.229 17.5573C135.365 18.1953 135.525 18.6283 135.707 18.8561C135.889 19.0384 136.072 19.4258 136.254 20.0183C136.026 20.474 135.844 20.9525 135.707 21.4538C135.616 21.9095 135.342 22.2513 134.887 22.4792C134.841 22.7982 134.932 22.9805 135.16 23.0261C135.388 23.0261 135.525 23.14 135.57 23.3679C135.616 23.778 135.548 24.0742 135.365 24.2565C136.459 26.0339 137.439 27.9252 138.305 29.9304C139.171 31.89 140.15 33.7585 141.244 35.5358ZM132.699 42.03C132.882 41.5287 133.109 41.1185 133.383 40.7995C133.702 40.4805 133.884 40.002 133.93 39.364C133.702 38.9994 133.565 38.7259 133.52 38.5436C133.474 38.3158 133.451 37.974 133.451 37.5183C132.449 36.1055 131.583 34.6016 130.854 33.0065C130.124 31.3659 129.304 29.8392 128.393 28.4265C128.301 28.6088 128.142 28.791 127.914 28.9733C127.686 29.1556 127.436 29.1101 127.162 28.8366C127.071 29.2012 126.911 29.4746 126.684 29.6569C126.456 29.7936 126.205 29.862 125.932 29.862C125.658 29.8164 125.362 29.7481 125.043 29.6569C124.77 29.5202 124.519 29.3607 124.291 29.1784C122.969 30.2266 121.648 31.252 120.326 32.2546C119.005 33.2572 117.82 34.4193 116.771 35.7409C116.589 35.8321 116.475 35.8776 116.43 35.8776C116.384 35.8321 116.247 35.8548 116.02 35.946C115.655 36.8119 115.199 37.6094 114.652 38.3386C114.151 39.0222 113.65 39.7285 113.148 40.4577C112.647 41.1869 112.214 41.9616 111.85 42.7819C111.485 43.6022 111.28 44.5593 111.234 45.653C112.009 46.291 112.921 46.6784 113.969 46.8151C115.017 46.9519 116.088 46.9746 117.182 46.8835C118.321 46.7923 119.415 46.6556 120.463 46.4733C121.557 46.2455 122.559 46.1315 123.471 46.1315C125.385 45.6758 127.025 45.0834 128.393 44.3542C129.76 43.5795 131.195 42.8047 132.699 42.03Z" fill="url(#paint2_linear_9_37)"/>
<path d="M180.824 23.1628C179.685 23.1628 178.454 23.2539 177.133 23.4362C175.811 23.5729 174.512 23.7324 173.236 23.9147C172.325 24.0515 171.436 24.1654 170.57 24.2565C169.75 24.3477 168.998 24.416 168.314 24.4616C167.995 25.4642 167.676 26.3529 167.357 27.1276C167.038 27.9024 166.697 28.6543 166.332 29.3835C165.967 30.1582 165.626 30.9558 165.307 31.7761C165.033 32.5508 164.76 33.3939 164.486 34.3054C164.031 35.0345 163.643 35.7181 163.324 36.3561C163.051 36.9486 162.823 37.6322 162.641 38.4069C162.094 39.0905 161.684 39.8197 161.41 40.5944C161.137 41.3236 160.932 41.9616 160.795 42.5085L160.521 43.3288C160.248 43.6022 160.089 43.8301 160.043 44.0124C159.997 44.1491 159.883 44.2858 159.701 44.4226C159.656 44.9239 159.496 45.4252 159.223 45.9265C159.132 46.1543 159.063 46.3822 159.018 46.6101C158.972 46.7923 158.949 46.9291 158.949 47.0202C158.949 47.4759 158.835 47.7722 158.607 47.9089C158.653 48.1367 158.653 48.3874 158.607 48.6608C158.562 48.8887 158.516 49.1166 158.471 49.3444C158.334 49.8913 158.288 50.3242 158.334 50.6433C158.471 50.8255 158.585 50.9851 158.676 51.1218C158.812 51.2585 158.904 51.4408 158.949 51.6686C159.223 51.8509 159.428 51.9649 159.564 52.0104C159.747 52.1472 160.02 52.3067 160.385 52.489L161 53.1726C161.228 54.4942 161.023 55.5423 160.385 56.3171C159.701 57.183 158.539 57.6159 156.898 57.6159H156.078C155.85 57.388 155.714 57.2058 155.668 57.069C155.303 56.9323 155.007 56.8184 154.779 56.7272C154.551 56.6361 154.346 56.4538 154.164 56.1804C153.572 55.9069 153.093 55.6791 152.729 55.4968L152.113 55.155C152.113 54.6537 152.113 54.3802 152.113 54.3347C151.794 53.9245 151.544 53.4688 151.361 52.9675C151.225 52.4662 151.111 51.9649 151.02 51.4636C150.928 51.0534 150.814 50.666 150.678 50.3015C150.587 49.9369 150.45 49.6179 150.268 49.3444C150.176 46.7012 150.427 44.4681 151.02 42.6452C151.612 40.8223 152.227 39.0677 152.865 37.3815C153.23 36.4701 153.594 35.5586 153.959 34.6472C154.324 33.6901 154.643 32.7103 154.916 31.7077L155.531 31.0241C155.85 30.2949 156.101 29.7025 156.283 29.2468C156.511 28.7455 156.739 28.2442 156.967 27.7429C157.104 27.4239 157.217 27.1276 157.309 26.8542C157.445 26.5352 157.559 26.2617 157.65 26.0339C157.377 26.0339 157.126 26.0567 156.898 26.1022C156.671 26.1022 156.443 26.125 156.215 26.1706C155.941 26.2162 155.691 26.2617 155.463 26.3073C155.235 26.3073 155.007 26.3073 154.779 26.3073C154.46 26.3073 154.232 26.2845 154.096 26.239C153.594 26.4668 153.048 26.5808 152.455 26.5808H151.771C151.635 26.5808 151.498 26.5808 151.361 26.5808C151.27 26.5352 151.179 26.5124 151.088 26.5124C150.632 26.5124 150.268 26.5808 149.994 26.7175C149.447 26.7175 148.923 26.7175 148.422 26.7175H147.738C147.647 26.7175 147.533 26.7403 147.396 26.7858C147.26 26.7858 147.146 26.7858 147.055 26.7858C146.736 26.7858 146.394 26.763 146.029 26.7175C145.665 26.6263 145.277 26.4668 144.867 26.239C144.32 25.5098 143.956 25.1224 143.773 25.0769L143.158 24.2565C143.113 23.9831 143.044 23.7324 142.953 23.5046C142.862 23.2311 142.771 22.9349 142.68 22.6159C142.497 22.1602 142.315 21.6817 142.133 21.1804C141.996 20.6335 141.928 19.9955 141.928 19.2663C141.973 18.9017 142.064 18.6283 142.201 18.446C142.338 18.2637 142.452 18.1042 142.543 17.9675L142.748 16.9421L143.637 17.0104H145.551C147.009 17.0104 148.49 16.9649 149.994 16.8737C151.498 16.737 153.048 16.6003 154.643 16.4636C155.554 16.3724 156.465 16.2813 157.377 16.1901C158.334 16.099 159.314 16.0078 160.316 15.9167C160.499 15.5065 160.681 15.1192 160.863 14.7546L161.547 14.4128C162.367 14.3672 162.937 14.4811 163.256 14.7546C163.62 14.9824 163.917 15.2103 164.145 15.4382C165.147 15.347 166.15 15.2559 167.152 15.1647C168.201 15.028 169.249 14.8685 170.297 14.6862C171.846 14.4584 173.396 14.2533 174.945 14.071C176.54 13.8887 178.067 13.7976 179.525 13.7976C180.163 13.7976 180.779 13.8203 181.371 13.8659C181.964 13.9115 182.51 13.9798 183.012 14.071L183.695 14.5495C183.832 14.8229 184.014 15.0736 184.242 15.3015C184.516 15.5293 184.789 15.7572 185.062 15.9851C185.609 16.4864 186.156 17.0788 186.703 17.7624C187.25 18.446 187.455 19.4486 187.318 20.7702C186.954 21.3171 186.68 21.6361 186.498 21.7272L185.883 22.5476L185.199 22.4792C184.926 22.4792 184.675 22.5248 184.447 22.6159C184.219 22.6615 183.992 22.7298 183.764 22.821C183.581 22.9121 183.399 23.0033 183.217 23.0944C183.035 23.14 182.829 23.1856 182.602 23.2311C182.191 23.2311 181.85 23.2311 181.576 23.2311C181.348 23.1856 181.098 23.1628 180.824 23.1628Z" fill="url(#paint3_linear_9_37)"/>
<path d="M221.84 43.739C220.746 45.6986 219.311 47.2253 217.533 48.319C215.756 49.3672 213.796 50.2559 211.654 50.9851C209.512 51.6686 207.257 52.2839 204.887 52.8308C202.562 53.3776 200.307 54.084 198.119 54.9499C197.481 54.9499 196.911 54.9727 196.41 55.0183C195.954 55.0638 195.499 55.1322 195.043 55.2233C194.633 55.2689 194.223 55.3373 193.812 55.4284C193.402 55.474 192.947 55.5196 192.445 55.5651C192.263 55.5196 192.149 55.5651 192.104 55.7019C192.058 55.793 191.99 55.8841 191.898 55.9753C191.124 56.112 190.417 56.1804 189.779 56.1804C189.187 56.1804 188.686 56.1804 188.275 56.1804C187.729 56.1804 187.159 56.2487 186.566 56.3854C186.02 56.5677 185.518 56.6361 185.062 56.5905C181.645 56.4082 178.956 55.2005 176.996 52.9675C175.082 50.6888 174.011 47.5443 173.783 43.5339C173.829 43.306 173.783 43.1693 173.646 43.1237C173.555 43.0782 173.464 43.0098 173.373 42.9186C173.373 42.4629 173.419 42.0755 173.51 41.7565C173.646 41.4375 173.669 41.0274 173.578 40.5261C174.763 38.0196 176.107 35.6953 177.611 33.5534C179.115 31.3659 180.915 29.4519 183.012 27.8112C183.331 27.5378 183.604 27.2644 183.832 26.9909C184.06 26.7175 184.265 26.444 184.447 26.1706C184.675 25.8972 184.926 25.6693 185.199 25.487C185.473 25.2591 185.814 25.0996 186.225 25.0085C187.182 23.9147 188.321 22.9121 189.643 22.0007C190.964 21.0892 192.354 20.2233 193.812 19.403C195.271 18.5371 196.706 17.694 198.119 16.8737C199.577 16.0078 200.899 15.0508 202.084 14.0026C202.585 14.2305 202.95 14.2989 203.178 14.2077C203.406 14.1166 203.656 14.1166 203.93 14.2077C204.249 14.8913 204.682 15.3698 205.229 15.6433C205.821 15.9167 206.391 16.2129 206.938 16.5319C207.53 16.8054 208.077 17.1472 208.578 17.5573C209.079 17.9675 209.467 18.5144 209.74 19.1979C209.467 19.1979 209.33 19.3119 209.33 19.5397C209.376 19.722 209.444 19.9271 209.535 20.155C209.626 20.3373 209.649 20.5423 209.604 20.7702C209.604 20.9525 209.444 21.0436 209.125 21.0436C209.171 21.2715 209.307 21.4082 209.535 21.4538C209.809 21.4538 209.945 21.5677 209.945 21.7956C209.945 22.0235 209.877 22.2058 209.74 22.3425C209.649 22.4792 209.649 22.7071 209.74 23.0261C208.829 23.6185 207.803 24.1882 206.664 24.7351C205.57 25.2819 204.408 25.8744 203.178 26.5124C201.993 27.1048 200.74 27.7657 199.418 28.4948C198.142 29.1784 196.889 29.9759 195.658 30.8874C194.428 31.7989 193.174 32.8242 191.898 33.9636C190.622 35.0573 189.392 36.2194 188.207 37.4499C187.022 38.6804 185.906 39.9564 184.857 41.278C183.809 42.5541 182.921 43.8301 182.191 45.1061C182.283 45.334 182.374 45.5163 182.465 45.653C182.602 45.7442 182.715 45.9037 182.807 46.1315C184.265 46.2227 185.609 46.2227 186.84 46.1315C188.116 45.9948 189.392 46.0632 190.668 46.3366C190.805 46.2455 190.896 46.1088 190.941 45.9265C190.987 45.7442 191.101 45.6074 191.283 45.5163C193.881 45.2429 196.296 44.8327 198.529 44.2858C200.762 43.6934 203.041 43.0782 205.365 42.4401C205.001 42.3034 204.659 42.1895 204.34 42.0983C204.066 41.9616 203.793 41.8477 203.52 41.7565C203.292 41.5287 203.292 41.3464 203.52 41.2097C203.793 41.0274 204.021 40.8451 204.203 40.6628C203.565 40.2982 203.041 39.8425 202.631 39.2956C202.266 38.7487 202.038 38.0196 201.947 37.1081C202.221 36.8802 202.357 36.6068 202.357 36.2878C202.357 35.9688 202.221 35.7181 201.947 35.5358C201.765 35.4903 201.651 35.4903 201.605 35.5358C201.56 35.5814 201.514 35.6498 201.469 35.7409C201.469 35.8321 201.446 35.9232 201.4 36.0144C201.355 36.0599 201.241 36.0371 201.059 35.946C201.104 35.5358 201.195 35.194 201.332 34.9206C201.514 34.6472 201.651 34.3282 201.742 33.9636L206.459 30.819C206.96 31.1836 207.576 31.5938 208.305 32.0495C209.034 32.4597 209.786 32.8926 210.561 33.3483C211.381 33.7585 212.201 34.1914 213.021 34.6472C213.887 35.0573 214.685 35.4675 215.414 35.8776C216.052 36.1511 216.622 36.5157 217.123 36.9714C217.624 37.4271 218.103 37.9056 218.559 38.4069C219.014 38.8627 219.47 39.3184 219.926 39.7741C220.427 40.2298 220.997 40.6172 221.635 40.9362C221.544 41.5287 221.566 42.0072 221.703 42.3718C221.84 42.7364 221.885 43.1921 221.84 43.739Z" fill="url(#paint4_linear_9_37)"/>
<path d="M259.369 17.1472C259.46 18.1498 259.62 19.0157 259.848 19.7448C260.076 20.474 260.326 21.1804 260.6 21.864C260.827 22.502 261.033 23.14 261.215 23.778C261.443 24.3705 261.602 25.0996 261.693 25.9655C261.329 27.1504 261.055 28.2442 260.873 29.2468C260.736 30.2494 260.577 31.2976 260.395 32.3913C259.665 33.9864 258.959 35.3991 258.275 36.6296C257.592 37.8601 257.045 38.931 256.635 39.8425C256.407 40.0703 256.202 40.3438 256.02 40.6628C255.883 40.9362 255.723 41.2324 255.541 41.5515C255.45 41.6882 255.336 41.8933 255.199 42.1667C255.062 42.4401 254.949 42.6224 254.857 42.7136L253.49 42.2351L253.217 43.944L252.26 44.2175L251.576 45.0378C250.71 46.5417 249.799 47.8177 248.842 48.8659C247.885 49.8685 246.791 50.78 245.561 51.6003C244.376 52.375 243.008 53.1042 241.459 53.7878C239.955 54.4714 238.246 55.2233 236.332 56.0436C235.557 55.9525 234.874 55.9069 234.281 55.9069C233.734 55.8614 233.21 55.8158 232.709 55.7702C231.843 55.7702 230.772 55.7019 229.496 55.5651C229.359 55.2005 229.154 54.9499 228.881 54.8132C228.607 54.6765 228.357 54.6081 228.129 54.6081C227.354 54.2435 226.762 53.7194 226.352 53.0358C225.987 52.3067 225.622 51.5319 225.258 50.7116C225.03 50.2103 224.802 49.7546 224.574 49.3444C224.346 48.8887 224.096 48.433 223.822 47.9772L224.984 47.6354L223.48 45.9948C223.389 45.8581 223.275 45.7442 223.139 45.653C223.002 45.5163 222.888 45.3796 222.797 45.2429L222.729 44.1491C222.592 41.0046 222.523 38.1335 222.523 35.5358C222.569 32.8926 222.934 30.5456 223.617 28.4948V27.7429C223.754 26.7403 223.891 25.9199 224.027 25.2819C224.164 24.5983 224.278 23.9603 224.369 23.3679C224.506 22.3653 224.711 21.431 224.984 20.5651C225.622 20.4284 226.101 20.1778 226.42 19.8132C226.739 19.403 227.012 19.0384 227.24 18.7194C227.878 18.6739 228.311 18.765 228.539 18.9929C228.767 19.2207 228.995 19.5853 229.223 20.0866C229.451 20.4968 229.724 20.9525 230.043 21.4538C230.408 21.9551 230.932 22.3425 231.615 22.6159C231.706 22.9805 231.82 23.3679 231.957 23.778C232.139 24.1426 232.322 24.5528 232.504 25.0085C232.868 25.7832 233.188 26.6035 233.461 27.4694C233.78 28.2897 233.962 29.0873 234.008 29.862C233.552 30.7279 233.188 31.7305 232.914 32.8698C232.686 34.0091 232.527 35.1713 232.436 36.3561C232.39 37.4955 232.413 38.612 232.504 39.7058C232.641 40.7539 232.846 41.6426 233.119 42.3718L233.529 43.2604L234.691 43.1237C236.059 42.7591 237.289 42.3718 238.383 41.9616C239.522 41.5059 240.57 40.9818 241.527 40.3894C242.484 39.7969 243.396 39.1133 244.262 38.3386C245.128 37.5183 246.039 36.584 246.996 35.5358C247.953 34.4877 248.773 33.3028 249.457 31.9811C250.186 30.614 250.779 29.2012 251.234 27.7429C251.736 26.2845 252.1 24.849 252.328 23.4362C252.602 21.9779 252.784 20.6107 252.875 19.3347C253.65 19.0612 254.037 18.5144 254.037 17.694L253.9 16.9421C253.718 16.6686 253.718 16.3496 253.9 15.9851C254.174 15.1192 254.812 14.4584 255.814 14.0026C256.544 14.4584 257.182 14.9597 257.729 15.5065C258.321 16.0534 258.868 16.6003 259.369 17.1472Z" fill="url(#paint5_linear_9_37)"/>
<path d="M273.998 43.6022C273.588 43.6934 273.292 43.944 273.109 44.3542C272.927 44.7188 272.745 45.1061 272.562 45.5163C272.426 45.9265 272.266 46.3138 272.084 46.6784C271.947 46.9974 271.719 47.1569 271.4 47.1569C271.355 47.5215 271.218 47.8405 270.99 48.114C270.808 48.3874 270.626 48.6836 270.443 49.0026C270.261 49.2761 270.124 49.5951 270.033 49.9597C269.942 50.2787 269.988 50.666 270.17 51.1218C269.805 51.3952 269.577 51.7826 269.486 52.2839C269.395 52.7852 269.281 53.2637 269.145 53.7194C269.053 54.1752 268.871 54.5625 268.598 54.8815C268.324 55.2005 267.823 55.3373 267.094 55.2917C266.957 55.474 266.934 55.5879 267.025 55.6335C267.117 55.6791 267.185 55.8386 267.23 56.112C266.729 56.0209 266.342 56.0436 266.068 56.1804C265.84 56.3627 265.544 56.4766 265.18 56.5222C264.314 56.2487 263.585 55.7702 262.992 55.0866C262.445 54.403 261.944 53.6511 261.488 52.8308C261.078 51.9649 260.691 51.099 260.326 50.2331C260.007 49.3672 259.688 48.6153 259.369 47.9772C259.506 47.4759 259.529 46.9974 259.438 46.5417C259.346 46.0404 259.187 45.6302 258.959 45.3112C261.192 40.5716 263.63 35.513 266.273 30.1354C268.917 24.7578 271.423 19.4486 273.793 14.2077C274.841 14.6179 275.867 15.0964 276.869 15.6433C277.917 16.1446 278.852 16.737 279.672 17.4206C280.538 18.1042 281.267 18.9017 281.859 19.8132C282.452 20.6791 282.839 21.6589 283.021 22.7526C282.93 23.0261 282.816 23.14 282.68 23.0944C282.589 23.0033 282.497 23.0261 282.406 23.1628C282.589 23.3907 282.68 23.5502 282.68 23.6413C282.725 23.7324 282.725 23.8236 282.68 23.9147C282.68 24.0059 282.68 24.1426 282.68 24.3249C282.68 24.4616 282.748 24.6667 282.885 24.9401C282.702 24.8946 282.566 24.9173 282.475 25.0085C282.429 25.0996 282.292 25.0996 282.064 25.0085C282.247 25.5098 282.292 25.9199 282.201 26.239C282.156 26.558 282.064 26.8542 281.928 27.1276C281.791 27.3555 281.677 27.6289 281.586 27.9479C281.495 28.2214 281.518 28.586 281.654 29.0417C281.518 29.0417 281.404 29.0873 281.312 29.1784C281.267 29.224 281.221 29.2923 281.176 29.3835C281.13 29.4291 281.062 29.4974 280.971 29.5886C280.925 29.6341 280.834 29.6341 280.697 29.5886C280.834 30.5912 280.88 31.5938 280.834 32.5964C280.788 33.599 280.743 34.6244 280.697 35.6726C280.697 36.6752 280.72 37.7461 280.766 38.8854C280.811 39.9792 280.971 41.1185 281.244 42.3034C282.885 41.3464 284.184 40.1159 285.141 38.612C286.143 37.1081 286.941 35.4219 287.533 33.5534C288.171 31.6849 288.65 29.6797 288.969 27.5378C289.288 25.3959 289.63 23.2084 289.994 20.9753C290.404 20.5651 290.723 20.0638 290.951 19.4714C291.179 18.8789 291.384 18.2637 291.566 17.6257C291.749 16.9421 291.931 16.2813 292.113 15.6433C292.296 14.9597 292.523 14.3444 292.797 13.7976C293.48 13.8887 294.05 14.1166 294.506 14.4811C295.007 14.8002 295.463 15.1647 295.873 15.5749C296.283 15.9395 296.716 16.3041 297.172 16.6686C297.628 16.9877 298.197 17.1927 298.881 17.2839C299.428 18.0586 299.929 18.8106 300.385 19.5397C300.84 20.2689 301.137 21.0436 301.273 21.864C301.046 22.2285 300.863 22.6387 300.727 23.0944C300.635 23.5502 300.521 24.0059 300.385 24.4616C300.248 24.9173 300.066 25.3503 299.838 25.7604C299.61 26.125 299.291 26.444 298.881 26.7175C298.744 27.9024 298.562 28.9961 298.334 29.9987C298.152 30.9558 297.947 31.9128 297.719 32.8698C297.536 33.8269 297.377 34.8295 297.24 35.8776C297.104 36.8802 297.058 37.9968 297.104 39.2272C296.739 40.2754 296.352 41.392 295.941 42.5769C295.531 43.7617 295.212 44.8327 294.984 45.7897C294.255 46.3822 293.686 47.0886 293.275 47.9089C292.865 48.7292 292.432 49.5495 291.977 50.3698C291.794 50.5521 291.68 50.5977 291.635 50.5065C291.589 50.4154 291.43 50.347 291.156 50.3015C291.202 50.4838 291.202 50.6205 291.156 50.7116C291.111 50.8028 291.042 50.8939 290.951 50.9851C290.906 51.0306 290.86 51.1218 290.814 51.2585C290.814 51.3952 290.86 51.5775 290.951 51.8054C290.313 52.0788 289.743 52.4662 289.242 52.9675C288.741 53.4688 288.194 53.9245 287.602 54.3347C287.055 54.7448 286.371 55.0183 285.551 55.155C284.776 55.2917 283.751 55.1322 282.475 54.6765C280.606 53.3093 278.943 51.737 277.484 49.9597C276.072 48.1823 274.91 46.0632 273.998 43.6022Z" fill="url(#paint6_linear_9_37)"/>
</g>
<g filter="url(#filter1_dddd_9_37)">
<path d="M105.001 70.0261C103.087 69.2514 101.492 68.1576 100.216 66.7449C98.9854 65.3321 97.9827 63.6687 97.208 61.7546C97.6637 60.5242 98.3929 59.4988 99.3955 58.6785C100.398 57.8126 101.515 57.0834 102.745 56.491C104.021 55.8985 105.366 55.42 106.778 55.0554C108.191 54.6908 109.558 54.3718 110.88 54.0984C111.153 54.1895 111.29 54.1895 111.29 54.0984C111.29 54.0072 111.404 54.0528 111.632 54.2351C113.272 53.7338 115.164 53.2553 117.306 52.7996C119.448 52.2983 121.726 52.116 124.142 52.2527C124.461 52.0704 124.848 51.9792 125.304 51.9792C125.759 51.9337 126.238 51.9109 126.739 51.9109C127.241 51.9109 127.719 51.9109 128.175 51.9109C128.631 51.8653 129.018 51.7742 129.337 51.6375C129.61 51.9565 130.021 52.1615 130.567 52.2527C131.114 52.2983 131.684 52.5261 132.276 52.9363C132.459 52.9819 132.459 52.9135 132.276 52.7312C132.094 52.5033 132.117 52.3438 132.345 52.2527C132.937 52.2527 133.461 52.3894 133.917 52.6628C134.373 52.9363 134.783 53.2553 135.147 53.6199C135.558 53.9389 135.922 54.2351 136.241 54.5085C136.606 54.782 136.993 54.9187 137.403 54.9187C137.813 55.42 138.292 55.8985 138.839 56.3542C139.431 56.7644 139.978 57.1973 140.479 57.6531C141.026 58.1088 141.459 58.6101 141.778 59.157C142.143 59.7039 142.325 60.3191 142.325 61.0027C142.28 61.2761 142.371 61.4356 142.599 61.4812C142.826 61.5268 142.986 61.6635 143.077 61.8914C143.123 63.5776 142.849 65.0359 142.257 66.2664C141.71 67.4968 141.004 68.6361 140.138 69.6843C139.272 70.6869 138.338 71.644 137.335 72.5554C136.378 73.4669 135.489 74.4467 134.669 75.4949C135.216 76.1785 135.831 76.8165 136.515 77.4089C137.244 77.9558 137.973 78.5027 138.702 79.0496C139.431 79.5964 140.115 80.1889 140.753 80.8269C141.437 81.4194 142.006 82.1029 142.462 82.8777C142.599 83.1511 142.895 83.3334 143.351 83.4246C143.487 83.9714 143.67 84.5411 143.897 85.1335C144.171 85.6804 144.422 86.2273 144.649 86.7742C144.877 87.2755 145.014 87.7312 145.06 88.1414C145.105 88.5515 144.991 88.8933 144.718 89.1667C145.037 89.349 145.219 89.6453 145.265 90.0554C145.31 90.42 145.31 90.7162 145.265 90.9441C144.262 92.1746 143.578 93.0404 143.214 93.5417C142.849 94.0431 142.576 94.4076 142.394 94.6355C142.211 94.8634 142.029 95.0684 141.847 95.2507C141.664 95.433 141.254 95.7976 140.616 96.3445C138.201 97.8028 135.672 99.1244 133.028 100.309C130.431 101.449 127.719 102.223 124.894 102.634C124.666 102.953 124.324 103.203 123.868 103.385C123.458 103.613 122.979 103.796 122.433 103.932C121.886 104.069 121.293 104.183 120.655 104.274C120.063 104.365 119.516 104.456 119.015 104.548C118.787 104.456 118.65 104.297 118.604 104.069C118.604 103.887 118.491 103.75 118.263 103.659C118.217 104.206 117.966 104.479 117.511 104.479C117.101 104.525 116.576 104.434 115.938 104.206C115.3 103.978 114.64 103.659 113.956 103.249C113.272 102.839 112.68 102.451 112.179 102.087C111.951 102.497 111.655 102.93 111.29 103.385C110.971 103.841 110.629 104.16 110.265 104.343C109.627 104.251 109.148 104.183 108.829 104.137C108.556 104.092 108.282 104.206 108.009 104.479C107.644 104.297 107.371 104.092 107.188 103.864C107.006 103.682 106.824 103.477 106.642 103.249C106.459 103.066 106.254 102.907 106.026 102.77C105.799 102.588 105.457 102.428 105.001 102.292C105.092 102.064 105.024 101.722 104.796 101.266C104.568 100.765 104.249 100.469 103.839 100.378C104.067 100.013 103.976 99.5574 103.565 99.0105C103.155 98.4181 102.836 97.7572 102.608 97.0281C102.654 96.7091 102.677 96.3901 102.677 96.071C102.722 95.7065 102.768 95.3875 102.813 95.114C102.905 94.795 103.019 94.5216 103.155 94.2937C103.292 94.0658 103.52 93.9063 103.839 93.8152C103.793 93.2227 103.611 92.6531 103.292 92.1062C103.702 91.7872 103.976 91.3998 104.112 90.9441C104.249 90.4428 104.363 89.9415 104.454 89.4402C104.591 88.9389 104.75 88.4604 104.933 88.0046C105.115 87.5033 105.411 87.0932 105.821 86.7742C105.73 86.6375 105.639 86.5235 105.548 86.4324C105.457 86.3412 105.411 86.1817 105.411 85.9539C106.095 84.8145 106.573 83.8575 106.847 83.0828C107.12 82.2625 107.325 81.4877 107.462 80.7585C107.644 79.9838 107.826 79.1635 108.009 78.2976C108.191 77.4317 108.556 76.338 109.103 75.0164C109.057 74.196 109.148 73.4669 109.376 72.8289C109.604 72.1908 109.832 71.5756 110.06 70.9832C110.333 70.3451 110.538 69.6843 110.675 69.0007C110.812 68.3171 110.789 67.5196 110.606 66.6082C109.832 66.6993 109.262 66.9727 108.897 67.4285C108.578 67.8842 108.373 68.4994 108.282 69.2742C107.872 69.6388 107.348 69.821 106.71 69.821C106.072 69.7755 105.502 69.8438 105.001 70.0261ZM135.079 83.2195C133.347 82.2625 131.752 81.6928 130.294 81.5105C128.881 81.3282 127.514 81.351 126.192 81.5789C124.916 81.7611 123.686 82.0346 122.501 82.3992C121.316 82.7638 120.131 83.0372 118.946 83.2195C118.354 84.769 117.739 86.4779 117.101 88.3464C116.463 90.2149 115.847 92.0378 115.255 93.8152C116.896 93.5873 118.399 93.2455 119.767 92.7898C121.134 92.3341 122.455 91.8328 123.731 91.2859C125.007 90.6934 126.261 90.1238 127.491 89.5769C128.722 88.9845 129.998 88.4376 131.319 87.9363C131.456 87.3894 131.752 86.9565 132.208 86.6375C132.664 86.3184 133.119 86.0222 133.575 85.7488C134.031 85.4298 134.418 85.088 134.737 84.7234C135.056 84.3588 135.17 83.8575 135.079 83.2195ZM130.294 61.823C127.468 61.7319 124.688 61.9825 121.954 62.575C119.22 63.1674 116.918 64.0333 115.05 65.1726C115.961 65.9473 116.896 66.6309 117.853 67.2234C118.855 67.8158 119.607 68.6134 120.108 69.616C122.296 68.7501 124.21 67.6563 125.851 66.3347C127.491 64.9675 128.972 63.4636 130.294 61.823Z" fill="url(#paint7_linear_9_37)"/>
<path d="M187.237 82.5359C187.192 83.0828 187.237 83.6069 187.374 84.1082C187.511 84.6095 187.67 85.1108 187.853 85.6121C188.08 86.0678 188.285 86.5463 188.468 87.0476C188.65 87.5489 188.787 88.0502 188.878 88.5515C188.969 89.1895 188.969 89.8959 188.878 90.6707C188.787 91.3998 188.627 92.129 188.399 92.8582C188.172 93.5417 187.875 94.1798 187.511 94.7722C187.146 95.3191 186.713 95.7292 186.212 96.0027C185.574 96.823 184.799 97.461 183.888 97.9167C182.976 98.3725 182.133 98.9194 181.358 99.5574C180.857 99.8764 180.287 100.104 179.649 100.241C179.057 100.378 178.442 100.514 177.804 100.651C177.302 100.925 176.71 101.221 176.026 101.54C175.343 101.813 174.636 102.087 173.907 102.36C173.178 102.588 172.449 102.77 171.72 102.907C170.991 102.998 170.353 103.021 169.806 102.975C168.438 103.477 167.094 103.796 165.772 103.932C164.496 104.115 162.993 104.024 161.261 103.659C159.62 103.887 158.093 103.818 156.681 103.454C155.313 103.089 154.083 102.52 152.989 101.745C151.941 100.925 151.007 99.9675 150.187 98.8738C149.412 97.7345 148.774 96.5496 148.272 95.3191C147.908 92.7214 147.999 90.3744 148.546 88.2781C149.093 86.1361 149.868 84.1765 150.87 82.3992C151.918 80.5763 153.103 78.9128 154.425 77.4089C155.746 75.8595 157.022 74.3556 158.253 72.8972C158.526 72.9884 158.731 72.9884 158.868 72.8972C159.05 72.7605 159.21 72.601 159.347 72.4187C159.483 72.1908 159.62 71.9858 159.757 71.8035C159.939 71.6212 160.144 71.5072 160.372 71.4617C160.691 70.7781 161.147 70.2768 161.739 69.9578C162.377 69.5932 162.879 69.0919 163.243 68.4539C163.653 68.3627 163.995 68.226 164.269 68.0437C164.542 67.8614 164.793 67.6563 165.021 67.4285C165.294 67.2006 165.567 66.9955 165.841 66.8132C166.114 66.5854 166.433 66.4259 166.798 66.3347V65.5828C167.618 65.2182 168.211 64.808 168.575 64.3523C168.985 63.851 169.464 63.2585 170.011 62.575C170.421 62.5294 170.74 62.5066 170.968 62.5066C171.241 62.5066 171.629 62.461 172.13 62.3699C172.494 61.7319 172.813 61.2533 173.087 60.9343C173.406 60.6153 173.862 60.2735 174.454 59.9089C175.001 60.1824 175.593 60.3647 176.231 60.4558C176.915 60.547 177.507 60.8432 178.009 61.3445C178.054 61.8002 178.191 62.1648 178.419 62.4382C178.647 62.6661 178.897 62.894 179.171 63.1218C179.444 63.3041 179.695 63.5092 179.923 63.7371C180.196 63.9649 180.379 64.2839 180.47 64.6941C180.652 64.7397 180.766 64.7169 180.812 64.6257C180.903 64.5346 181.039 64.5118 181.222 64.5574C181.358 65.1954 181.518 65.6283 181.7 65.8562C181.882 66.0385 182.065 66.4259 182.247 67.0183C182.019 67.474 181.837 67.9526 181.7 68.4539C181.609 68.9096 181.336 69.2514 180.88 69.4792C180.834 69.7983 180.925 69.9806 181.153 70.0261C181.381 70.0261 181.518 70.1401 181.563 70.3679C181.609 70.7781 181.541 71.0743 181.358 71.2566C182.452 73.0339 183.432 74.9252 184.298 76.9304C185.164 78.8901 186.144 80.7585 187.237 82.5359ZM178.692 89.03C178.875 88.5287 179.103 88.1186 179.376 87.7996C179.695 87.4806 179.877 87.002 179.923 86.364C179.695 85.9994 179.558 85.726 179.513 85.5437C179.467 85.3158 179.444 84.974 179.444 84.5183C178.442 83.1056 177.576 81.6016 176.847 80.0066C176.118 78.366 175.297 76.8393 174.386 75.4265C174.295 75.6088 174.135 75.7911 173.907 75.9734C173.679 76.1557 173.429 76.1101 173.155 75.8367C173.064 76.2013 172.905 76.4747 172.677 76.657C172.449 76.7937 172.198 76.8621 171.925 76.8621C171.651 76.8165 171.355 76.7481 171.036 76.657C170.763 76.5203 170.512 76.3608 170.284 76.1785C168.963 77.2266 167.641 78.252 166.319 79.2546C164.998 80.2572 163.813 81.4194 162.765 82.741C162.582 82.8321 162.468 82.8777 162.423 82.8777C162.377 82.8321 162.241 82.8549 162.013 82.946C161.648 83.8119 161.192 84.6095 160.646 85.3386C160.144 86.0222 159.643 86.7286 159.142 87.4578C158.64 88.1869 158.207 88.9617 157.843 89.782C157.478 90.6023 157.273 91.5593 157.228 92.6531C158.002 93.2911 158.914 93.6785 159.962 93.8152C161.01 93.9519 162.081 93.9747 163.175 93.8835C164.314 93.7924 165.408 93.6557 166.456 93.4734C167.55 93.2455 168.552 93.1316 169.464 93.1316C171.378 92.6759 173.019 92.0834 174.386 91.3542C175.753 90.5795 177.188 89.8048 178.692 89.03Z" fill="url(#paint8_linear_9_37)"/>
<path d="M226.817 70.1628C225.678 70.1628 224.448 70.254 223.126 70.4363C221.804 70.573 220.506 70.7325 219.229 70.9148C218.318 71.0515 217.429 71.1654 216.563 71.2566C215.743 71.3477 214.991 71.4161 214.308 71.4617C213.989 72.4643 213.67 73.3529 213.351 74.1277C213.032 74.9024 212.69 75.6544 212.325 76.3835C211.961 77.1583 211.619 77.9558 211.3 78.7761C211.026 79.5509 210.753 80.394 210.479 81.3054C210.024 82.0346 209.636 82.7182 209.317 83.3562C209.044 83.9486 208.816 84.6322 208.634 85.407C208.087 86.0906 207.677 86.8197 207.403 87.5945C207.13 88.3236 206.925 88.9617 206.788 89.5085L206.515 90.3289C206.241 90.6023 206.082 90.8302 206.036 91.0125C205.991 91.1492 205.877 91.2859 205.694 91.4226C205.649 91.9239 205.489 92.4252 205.216 92.9265C205.125 93.1544 205.056 93.3822 205.011 93.6101C204.965 93.7924 204.942 93.9291 204.942 94.0203C204.942 94.476 204.828 94.7722 204.601 94.9089C204.646 95.1368 204.646 95.3875 204.601 95.6609C204.555 95.8888 204.509 96.1166 204.464 96.3445C204.327 96.8914 204.282 97.3243 204.327 97.6433C204.464 97.8256 204.578 97.9851 204.669 98.1218C204.806 98.2585 204.897 98.4408 204.942 98.6687C205.216 98.851 205.421 98.9649 205.558 99.0105C205.74 99.1472 206.013 99.3067 206.378 99.489L206.993 100.173C207.221 101.494 207.016 102.542 206.378 103.317C205.694 104.183 204.532 104.616 202.892 104.616H202.071C201.843 104.388 201.707 104.206 201.661 104.069C201.297 103.932 201 103.818 200.772 103.727C200.545 103.636 200.34 103.454 200.157 103.18C199.565 102.907 199.086 102.679 198.722 102.497L198.106 102.155C198.106 101.654 198.106 101.38 198.106 101.335C197.787 100.925 197.537 100.469 197.354 99.9675C197.218 99.4662 197.104 98.9649 197.013 98.4636C196.922 98.0535 196.808 97.6661 196.671 97.3015C196.58 96.9369 196.443 96.6179 196.261 96.3445C196.17 93.7013 196.42 91.4682 197.013 89.6453C197.605 87.8223 198.22 86.0678 198.858 84.3816C199.223 83.4701 199.588 82.5587 199.952 81.6472C200.317 80.6902 200.636 79.7104 200.909 78.7078L201.524 78.0242C201.843 77.295 202.094 76.7026 202.276 76.2468C202.504 75.7455 202.732 75.2442 202.96 74.7429C203.097 74.4239 203.211 74.1277 203.302 73.8542C203.438 73.5352 203.552 73.2618 203.644 73.0339C203.37 73.0339 203.119 73.0567 202.892 73.1023C202.664 73.1023 202.436 73.1251 202.208 73.1707C201.935 73.2162 201.684 73.2618 201.456 73.3074C201.228 73.3074 201 73.3074 200.772 73.3074C200.453 73.3074 200.226 73.2846 200.089 73.239C199.588 73.4669 199.041 73.5808 198.448 73.5808H197.765C197.628 73.5808 197.491 73.5808 197.354 73.5808C197.263 73.5352 197.172 73.5125 197.081 73.5125C196.625 73.5125 196.261 73.5808 195.987 73.7175C195.44 73.7175 194.916 73.7175 194.415 73.7175H193.731C193.64 73.7175 193.526 73.7403 193.39 73.7859C193.253 73.7859 193.139 73.7859 193.048 73.7859C192.729 73.7859 192.387 73.7631 192.022 73.7175C191.658 73.6264 191.271 73.4669 190.86 73.239C190.313 72.5098 189.949 72.1225 189.767 72.0769L189.151 71.2566C189.106 70.9832 189.037 70.7325 188.946 70.5046C188.855 70.2312 188.764 69.935 188.673 69.616C188.491 69.1602 188.308 68.6817 188.126 68.1804C187.989 67.6335 187.921 66.9955 187.921 66.2664C187.966 65.9018 188.058 65.6283 188.194 65.446C188.331 65.2638 188.445 65.1042 188.536 64.9675L188.741 63.9421L189.63 64.0105H191.544C193.002 64.0105 194.483 63.9649 195.987 63.8738C197.491 63.7371 199.041 63.6003 200.636 63.4636C201.547 63.3725 202.459 63.2813 203.37 63.1902C204.327 63.099 205.307 63.0079 206.31 62.9167C206.492 62.5066 206.674 62.1192 206.856 61.7546L207.54 61.4128C208.36 61.3673 208.93 61.4812 209.249 61.7546C209.614 61.9825 209.91 62.2104 210.138 62.4382C211.14 62.3471 212.143 62.2559 213.146 62.1648C214.194 62.0281 215.242 61.8686 216.29 61.6863C217.84 61.4584 219.389 61.2533 220.938 61.071C222.534 60.8888 224.06 60.7976 225.519 60.7976C226.157 60.7976 226.772 60.8204 227.364 60.866C227.957 60.9115 228.504 60.9799 229.005 61.071L229.688 61.5496C229.825 61.823 230.007 62.0736 230.235 62.3015C230.509 62.5294 230.782 62.7572 231.056 62.9851C231.603 63.4864 232.149 64.0789 232.696 64.7625C233.243 65.446 233.448 66.4486 233.312 67.7703C232.947 68.3171 232.674 68.6361 232.491 68.7273L231.876 69.5476L231.192 69.4792C230.919 69.4792 230.668 69.5248 230.44 69.616C230.213 69.6615 229.985 69.7299 229.757 69.821C229.575 69.9122 229.392 70.0033 229.21 70.0945C229.028 70.1401 228.823 70.1856 228.595 70.2312C228.185 70.2312 227.843 70.2312 227.569 70.2312C227.341 70.1856 227.091 70.1628 226.817 70.1628Z" fill="url(#paint9_linear_9_37)"/>
</g>
<defs>
<filter id="filter0_dddd_9_37" x="16" y="0" width="290.273" height="62.616" filterUnits="userSpaceOnUse" color-interpolation-filters="sRGB">
<feFlood flood-opacity="0" result="BackgroundImageFix"/>
<feColorMatrix in="SourceAlpha" type="matrix" values="0 0 0 0 0 0 0 0 0 0 0 0 0 0 0 0 0 0 127 0" result="hardAlpha"/>
<feOffset dx="2" dy="2"/>
<feGaussianBlur stdDeviation="1"/>
<feComposite in2="hardAlpha" operator="out"/>
<feColorMatrix type="matrix" values="0 0 0 0 0.846094 0 0 0 0 0.0855708 0 0 0 0 0.313728 0 0 0 1 0"/>
<feBlend mode="normal" in2="BackgroundImageFix" result="effect1_dropShadow_9_37"/>
<feColorMatrix in="SourceAlpha" type="matrix" values="0 0 0 0 0 0 0 0 0 0 0 0 0 0 0 0 0 0 127 0" result="hardAlpha"/>
<feOffset dx="-1" dy="-1"/>
<feGaussianBlur stdDeviation="2"/>
<feComposite in2="hardAlpha" operator="out"/>
<feColorMatrix type="matrix" values="0 0 0 0 1 0 0 0 0 1 0 0 0 0 1 0 0 0 1 0"/>
<feBlend mode="normal" in2="effect1_dropShadow_9_37" result="effect2_dropShadow_9_37"/>
<feColorMatrix in="SourceAlpha" type="matrix" values="0 0 0 0 0 0 0 0 0 0 0 0 0 0 0 0 0 0 127 0" result="hardAlpha"/>
<feOffset dx="-1" dy="-1"/>
<feGaussianBlur stdDeviation="1"/>
<feComposite in2="hardAlpha" operator="out"/>
<feColorMatrix type="matrix" values="0 0 0 0 1 0 0 0 0 1 0 0 0 0 1 0 0 0 1 0"/>
<feBlend mode="normal" in2="effect2_dropShadow_9_37" result="effect3_dropShadow_9_37"/>
<feColorMatrix in="SourceAlpha" type="matrix" values="0 0 0 0 0 0 0 0 0 0 0 0 0 0 0 0 0 0 127 0" result="hardAlpha"/>
<feOffset dx="1" dy="1"/>
<feGaussianBlur stdDeviation="2"/>
<feComposite in2="hardAlpha" operator="out"/>
<feColorMatrix type="matrix" values="0 0 0 0 0.70026 0 0 0 0 0.126259 0 0 0 0 0.47066 0 0 0 1 0"/>
<feBlend mode="normal" in2="effect3_dropShadow_9_37" result="effect4_dropShadow_9_37"/>
<feBlend mode="normal" in="SourceGraphic" in2="effect4_dropShadow_9_37" result="shape"/>
</filter>
<filter id="filter1_dddd_9_37" x="92.208" y="46.6375" width="146.145" height="62.9785" filterUnits="userSpaceOnUse" color-interpolation-filters="sRGB">
<feFlood flood-opacity="0" result="BackgroundImageFix"/>
<feColorMatrix in="SourceAlpha" type="matrix" values="0 0 0 0 0 0 0 0 0 0 0 0 0 0 0 0 0 0 127 0" result="hardAlpha"/>
<feOffset dx="2" dy="2"/>
<feGaussianBlur stdDeviation="1"/>
<feComposite in2="hardAlpha" operator="out"/>
<feColorMatrix type="matrix" values="0 0 0 0 0.846094 0 0 0 0 0.0855708 0 0 0 0 0.313728 0 0 0 1 0"/>
<feBlend mode="normal" in2="BackgroundImageFix" result="effect1_dropShadow_9_37"/>
<feColorMatrix in="SourceAlpha" type="matrix" values="0 0 0 0 0 0 0 0 0 0 0 0 0 0 0 0 0 0 127 0" result="hardAlpha"/>
<feOffset dx="-1" dy="-1"/>
<feGaussianBlur stdDeviation="2"/>
<feComposite in2="hardAlpha" operator="out"/>
<feColorMatrix type="matrix" values="0 0 0 0 1 0 0 0 0 1 0 0 0 0 1 0 0 0 1 0"/>
<feBlend mode="normal" in2="effect1_dropShadow_9_37" result="effect2_dropShadow_9_37"/>
<feColorMatrix in="SourceAlpha" type="matrix" values="0 0 0 0 0 0 0 0 0 0 0 0 0 0 0 0 0 0 127 0" result="hardAlpha"/>
<feOffset dx="-1" dy="-1"/>
<feGaussianBlur stdDeviation="0.5"/>
<feComposite in2="hardAlpha" operator="out"/>
<feColorMatrix type="matrix" values="0 0 0 0 1 0 0 0 0 1 0 0 0 0 1 0 0 0 1 0"/>
<feBlend mode="normal" in2="effect2_dropShadow_9_37" result="effect3_dropShadow_9_37"/>
<feColorMatrix in="SourceAlpha" type="matrix" values="0 0 0 0 0 0 0 0 0 0 0 0 0 0 0 0 0 0 127 0" result="hardAlpha"/>
<feOffset dx="1" dy="1"/>
<feGaussianBlur stdDeviation="2"/>
<feComposite in2="hardAlpha" operator="out"/>
<feColorMatrix type="matrix" values="0 0 0 0 0.70026 0 0 0 0 0.126259 0 0 0 0 0.47066 0 0 0 1 0"/>
<feBlend mode="normal" in2="effect3_dropShadow_9_37" result="effect4_dropShadow_9_37"/>
<feBlend mode="normal" in="SourceGraphic" in2="effect4_dropShadow_9_37" result="shape"/>
</filter>
<linearGradient id="paint0_linear_9_37" x1="299.906" y1="3.0437" x2="19.9063" y2="3.0437" gradientUnits="userSpaceOnUse">
<stop stop-color="#F97316"/>
<stop offset="0.53504" stop-color="#FBBF24"/>
<stop offset="1" stop-color="#F97316"/>
</linearGradient>
<linearGradient id="paint1_linear_9_37" x1="299.906" y1="3.0437" x2="19.9063" y2="3.0437" gradientUnits="userSpaceOnUse">
<stop stop-color="#F97316"/>
<stop offset="0.53504" stop-color="#FBBF24"/>
<stop offset="1" stop-color="#F97316"/>
</linearGradient>
<linearGradient id="paint2_linear_9_37" x1="299.906" y1="3.0437" x2="19.9063" y2="3.0437" gradientUnits="userSpaceOnUse">
<stop stop-color="#F97316"/>
<stop offset="0.53504" stop-color="#FBBF24"/>
<stop offset="1" stop-color="#F97316"/>
</linearGradient>
<linearGradient id="paint3_linear_9_37" x1="299.906" y1="3.0437" x2="19.9063" y2="3.0437" gradientUnits="userSpaceOnUse">
<stop stop-color="#F97316"/>
<stop offset="0.53504" stop-color="#FBBF24"/>
<stop offset="1" stop-color="#F97316"/>
</linearGradient>
<linearGradient id="paint4_linear_9_37" x1="299.906" y1="3.0437" x2="19.9063" y2="3.0437" gradientUnits="userSpaceOnUse">
<stop stop-color="#F97316"/>
<stop offset="0.53504" stop-color="#FBBF24"/>
<stop offset="1" stop-color="#F97316"/>
</linearGradient>
<linearGradient id="paint5_linear_9_37" x1="299.906" y1="3.0437" x2="19.9063" y2="3.0437" gradientUnits="userSpaceOnUse">
<stop stop-color="#F97316"/>
<stop offset="0.53504" stop-color="#FBBF24"/>
<stop offset="1" stop-color="#F97316"/>
</linearGradient>
<linearGradient id="paint6_linear_9_37" x1="299.906" y1="3.0437" x2="19.9063" y2="3.0437" gradientUnits="userSpaceOnUse">
<stop stop-color="#F97316"/>
<stop offset="0.53504" stop-color="#FBBF24"/>
<stop offset="1" stop-color="#F97316"/>
</linearGradient>
<linearGradient id="paint7_linear_9_37" x1="221.906" y1="50.0437" x2="98.9062" y2="50.0437" gradientUnits="userSpaceOnUse">
<stop stop-color="#F97316"/>
<stop offset="0.53504" stop-color="#FBBF24"/>
<stop offset="1" stop-color="#F97316"/>
</linearGradient>
<linearGradient id="paint8_linear_9_37" x1="221.906" y1="50.0437" x2="98.9062" y2="50.0437" gradientUnits="userSpaceOnUse">
<stop stop-color="#F97316"/>
<stop offset="0.53504" stop-color="#FBBF24"/>
<stop offset="1" stop-color="#F97316"/>
</linearGradient>
<linearGradient id="paint9_linear_9_37" x1="221.906" y1="50.0437" x2="98.9062" y2="50.0437" gradientUnits="userSpaceOnUse">
<stop stop-color="#F97316"/>
<stop offset="0.53504" stop-color="#FBBF24"/>
<stop offset="1" stop-color="#F97316"/>
</linearGradient>
</defs>
</svg>
